# xmcd CD database file
#
# Track frame offsets:
#	150
#	17500
#	42240
#	59540
#
# Disc length: 1120 seconds
#
# Revision: 4
# Processed by: cddbd v1.5PL3 Copyright (c) Steve Scherf et al.
# Submitted via: CDex 1.50beta9
#
DISCID=2b045e04
DTITLE=JAM Project - 鋼の救世主
DYEAR=2001
DGENRE=Soundtrack
TTITLE0=鋼の救世主
TTITLE1=POWER
TTITLE2=鋼の救世主 (off vocal)
TTITLE3=POWER (off vocal)
EXTD=YEAR: 2001
EXTT0=
EXTT1=
EXTT2=
EXTT3=
PLAYORDER=
